<?xml version="1.0" encoding="UTF-8" standalone="no"?>
<svg
   xmlns:dc="http://purl.org/dc/elements/1.1/"
   xmlns:cc="http://creativecommons.org/ns#"
   xmlns:rdf="http://www.w3.org/1999/02/22-rdf-syntax-ns#"
   xmlns:svg="http://www.w3.org/2000/svg"
   xmlns="http://www.w3.org/2000/svg"
   id="svg1865"
   version="1.1"
   viewBox="0 0 210 297"
   height="297mm"
   width="210mm">
  <defs
     id="defs1859" />
  <metadata
     id="metadata1862">
    <rdf:RDF>
      <cc:Work
         rdf:about="">
        <dc:format>image/svg+xml</dc:format>
        <dc:type
           rdf:resource="http://purl.org/dc/dcmitype/StillImage" />
        <dc:title></dc:title>
      </cc:Work>
    </rdf:RDF>
  </metadata>
  <g
     id="layer1">
    <path
       id="path1048-3-3-8-6-4"
       d="m 15.977859,21.074132 c 9.94338,-1.87077 8.4727,-7.29663 14.55203,-7.52188 5.70115,0.40321 5.26239,5.53112 12.88898,5.17837 9.58463,-2.87502 9.29821,-14.6655406 19.99494,-15.1947306 -5.84233,7.8195706 -2.79563,11.4572506 12.6622,16.0640806 l 7.74853,1.28517 z"
       style="fill:#a0d9d9;fill-opacity:1;fill-rule:evenodd;stroke:none;stroke-width:0.26458332px;stroke-linecap:butt;stroke-linejoin:miter;stroke-opacity:1" />
    <path
       id="path1048-3-3-8-6-0-3"
       d="m 6.6418381,20.847302 c 9.9433809,-1.87077 8.4727009,-7.29663 14.5520209,-7.52188 5.70115,0.40321 5.26239,5.53112 12.88898,5.17837 9.58463,-2.87502 9.29821,-14.6655406 19.99494,-15.1947306 -5.84233,7.8195706 -2.79563,11.4572506 12.6622,16.0640806 l 7.74853,1.28517 z"
       style="fill:#49868c;fill-opacity:1;fill-rule:evenodd;stroke:none;stroke-width:0.26458332px;stroke-linecap:butt;stroke-linejoin:miter;stroke-opacity:1" />
    <path
       id="path1048-4-0"
       d="m 1.8405381,21.730662 21.0100409,-5.47173 12.88615,3.76697 18.62891,-13.1156506 21.71037,13.7480606 9.57124,0.93487 z"
       style="fill:none;fill-rule:evenodd;stroke:#252d59;stroke-width:0.45000002;stroke-linecap:butt;stroke-linejoin:miter;stroke-miterlimit:4;stroke-dasharray:0.44999998, 1.34999994;stroke-dashoffset:0;stroke-opacity:1" />
  </g>
</svg>
